<svg width="34" height="34" viewBox="0 0 34 34" fill="none" xmlns="http://www.w3.org/2000/svg">
<g clip-path="url(#clip0_1_2183)">
<path fill-rule="evenodd" clip-rule="evenodd" d="M2 11V23H14V11H2ZM0 25H16V9H0V25Z" fill="#1A1A1A"/>
<path fill-rule="evenodd" clip-rule="evenodd" d="M22.586 12.0002L28.293 6.2932L29.707 7.7072L23.414 14.0002H15V12.0002H22.586ZM22.586 22.0002L28.293 27.7072L29.707 26.2932L23.414 20.0002H15V22.0002H22.586ZM13 27.7142L19.824 30.0542L19.176 31.9462L11 29.1432V25.0002H13V27.7142ZM13 6.2422L19.879 3.4252L19.121 1.5752L11 4.9002V9.0002H13V6.2422ZM24.764 16.0002L28.553 14.1062L29.447 15.8942L25.237 18.0002H15V16.0002H24.764Z" fill="#1A1A1A"/>
<path fill-rule="evenodd" clip-rule="evenodd" d="M30 5V7H32V5H30ZM28 9H34V3H28V9ZM30 14V16H32V14H30ZM28 18H34V12H28V18ZM30 27V29H32V27H30ZM28 31H34V25H28V31ZM21 30V32H23V30H21ZM19 34H25V28H19V34ZM21 4V2H23V4H21ZM19 0H25V6H19V0Z" fill="#1A1A1A"/>
</g>
<defs>
<clipPath id="clip0_1_2183">
<rect width="34" height="34" fill="white"/>
</clipPath>
</defs>
</svg>
