<svg width="19" height="18" viewBox="0 0 19 18" fill="none" xmlns="http://www.w3.org/2000/svg">
<path d="M9.49435 3C7.83099 3 6.23576 3.63214 5.05959 4.75736C3.88341 5.88258 3.22265 7.4087 3.22265 9C3.22265 10.5913 3.88341 12.1174 5.05959 13.2426C6.23576 14.3679 7.83099 15 9.49435 15C11.1577 15 12.7529 14.3679 13.9291 13.2426C15.1053 12.1174 15.766 10.5913 15.766 9C15.766 7.4087 15.1053 5.88258 13.9291 4.75736C12.7529 3.63214 11.1577 3 9.49435 3ZM1.65472 9C1.65472 4.85775 5.16452 1.5 9.49435 1.5C13.8242 1.5 17.334 4.85775 17.334 9C17.334 13.1423 13.8242 16.5 9.49435 16.5C5.16452 16.5 1.65472 13.1423 1.65472 9Z" fill="#7A7790"/>
<path d="M12.4006 6.96971C12.5476 7.11036 12.6301 7.30109 12.6301 7.49996C12.6301 7.69883 12.5476 7.88957 12.4006 8.03021L9.26475 11.0302C9.11774 11.1708 8.91837 11.2498 8.71049 11.2498C8.50261 11.2498 8.30324 11.1708 8.15623 11.0302L6.5883 9.53021C6.51343 9.46103 6.4537 9.37827 6.41262 9.28677C6.37153 9.19526 6.3499 9.09685 6.349 8.99726C6.34809 8.89768 6.36793 8.79892 6.40735 8.70675C6.44677 8.61457 6.50498 8.53084 6.57859 8.46042C6.65219 8.39 6.73972 8.33431 6.83607 8.2966C6.93242 8.25889 7.03565 8.23991 7.13974 8.24077C7.24384 8.24164 7.34671 8.26233 7.44235 8.30164C7.538 8.34094 7.62451 8.39808 7.69683 8.46971L8.71049 9.43946L11.2921 6.96971C11.4391 6.82911 11.6385 6.75012 11.8463 6.75012C12.0542 6.75012 12.2536 6.82911 12.4006 6.96971Z" fill="#7A7790"/>
</svg>
